<svg xmlns="http://www.w3.org/2000/svg" viewBox="19 -527 2848 695" preserveAspectRatio="xMidYMin meet"><defs><linearGradient id="fade" x1="0" y1="-527" x2="0" y2="168" gradientUnits="userSpaceOnUse"><stop offset="0.0" stop-color="#fff" stop-opacity="1.0"/><stop offset="0.18" stop-color="#fff" stop-opacity="0.6"/><stop offset="0.4" stop-color="#fff" stop-opacity="0.26"/><stop offset="0.62" stop-color="#fff" stop-opacity="0.08"/><stop offset="0.85" stop-color="#fff" stop-opacity="0.0"/></linearGradient></defs><path fill="url(#fade)" d="M282.0 15.0Q163.0 15.0 91.0 -62.0Q19.0 -139.0 19.0 -256.0Q19.0 -373.0 89.5 -450.0Q160.0 -527.0 275.0 -527.0Q372.0 -527.0 433.0 -476.0Q494.0 -425.0 508.0 -339.0H375.0Q368.0 -374.0 343.0 -396.0Q318.0 -418.0 281.0 -418.0Q221.0 -418.0 189.0 -375.0Q157.0 -332.0 157.0 -256.0Q157.0 -181.0 188.0 -137.5Q219.0 -94.0 279.0 -94.0Q368.0 -94.0 382.0 -181.0H513.0Q506.0 -96.0 444.0 -40.5Q382.0 15.0 282.0 15.0Z M875.0 0.0Q865.0 -13.0 859.0 -57.0H857.0Q835.0 -24.0 801.0 -6.0Q767.0 12.0 706.0 12.0Q625.0 12.0 576.0 -29.0Q527.0 -70.0 527.0 -145.0Q527.0 -223.0 581.0 -259.5Q635.0 -296.0 733.0 -310.0Q805.0 -320.0 831.0 -330.5Q857.0 -341.0 857.0 -368.0Q857.0 -396.0 835.0 -412.5Q813.0 -429.0 771.0 -429.0Q678.0 -429.0 672.0 -357.0H551.0Q554.0 -430.0 610.0 -478.0Q666.0 -526.0 772.0 -526.0Q988.0 -526.0 988.0 -337.0V-76.0Q988.0 -18.0 1006.0 -5.0V0.0ZM739.0 -83.0Q795.0 -83.0 827.5 -112.0Q860.0 -141.0 860.0 -181.0V-258.0Q838.0 -245.0 765.0 -228.0Q707.0 -215.0 683.0 -198.5Q659.0 -182.0 659.0 -148.0Q659.0 -83.0 739.0 -83.0Z M1187.0 -513.0V-443.0H1190.0Q1243.0 -527.0 1342.0 -527.0Q1421.0 -527.0 1470.0 -473.5Q1519.0 -420.0 1519.0 -335.0V0.0H1383.0V-315.0Q1383.0 -357.0 1359.5 -383.0Q1336.0 -409.0 1294.0 -409.0Q1249.0 -409.0 1219.5 -376.0Q1190.0 -343.0 1190.0 -291.0V0.0H1054.0V-513.0Z M1906.0 0.0Q1896.0 -13.0 1890.0 -57.0H1888.0Q1866.0 -24.0 1832.0 -6.0Q1798.0 12.0 1737.0 12.0Q1656.0 12.0 1607.0 -29.0Q1558.0 -70.0 1558.0 -145.0Q1558.0 -223.0 1612.0 -259.5Q1666.0 -296.0 1764.0 -310.0Q1836.0 -320.0 1862.0 -330.5Q1888.0 -341.0 1888.0 -368.0Q1888.0 -396.0 1866.0 -412.5Q1844.0 -429.0 1802.0 -429.0Q1709.0 -429.0 1703.0 -357.0H1582.0Q1585.0 -430.0 1641.0 -478.0Q1697.0 -526.0 1803.0 -526.0Q2019.0 -526.0 2019.0 -337.0V-76.0Q2019.0 -18.0 2037.0 -5.0V0.0ZM1770.0 -83.0Q1826.0 -83.0 1858.5 -112.0Q1891.0 -141.0 1891.0 -181.0V-258.0Q1869.0 -245.0 1796.0 -228.0Q1738.0 -215.0 1714.0 -198.5Q1690.0 -182.0 1690.0 -148.0Q1690.0 -83.0 1770.0 -83.0Z M2216.0 -513.0V-431.0H2219.0Q2243.0 -476.0 2272.0 -497.5Q2301.0 -519.0 2345.0 -519.0Q2366.0 -519.0 2377.0 -515.0V-396.0H2374.0Q2305.0 -403.0 2263.0 -366.0Q2221.0 -329.0 2221.0 -250.0V0.0H2085.0V-513.0Z M2427.0 168.0V61.0H2475.0Q2551.0 61.0 2551.0 -9.0Q2551.0 -43.0 2512.0 -148.0L2374.0 -513.0H2517.0L2593.0 -282.0L2626.0 -170.0H2628.0Q2642.0 -235.0 2658.0 -282.0L2730.0 -513.0H2867.0L2688.0 13.0Q2658.0 101.0 2620.5 134.5Q2583.0 168.0 2507.0 168.0Z"/></svg>