<svg xmlns="http://www.w3.org/2000/svg" width="512" height="512" viewBox="0 0 512 512">
  <rect width="512" height="512" rx="108" fill="#ff0049"/>
  <g transform="translate(96 118) scale(0.672)" fill="#ffffff">
    <path d="M67.38,254.23l115.86-25.2L0,412.83l330.65-149.08s29.24-12.58,35.71-37.94c6.46-25.36,9.49-37.26,9.49-37.26L420.47,13.42s7.91-30.2-32.31,0c-40.23,30.2-320.77,240.81-320.77,240.81Z"/>
    <path d="M378.47,170.13s2.9-25.93,31.22-53.94c28.32-28.01,66.18-65.45,66.18-65.45l-91.11,16.83-6.29,102.56Z"/>
    <polygon points="2.69 327.08 81.8 316.47 152.17 245.88 102.62 256.66 2.69 327.08"/>
    <polygon points="198.93 317.48 351.12 297.46 293.72 243.22 198.93 317.48"/>
    <path d="M194.59,325.09s24.17-10.23,42.29-12.61l18.12-2.38-30.21-16.85-30.21,31.84Z"/>
  </g>
</svg>
